<svg id="visual" viewBox="0 0 960 540" width="960" height="540" xmlns="http://www.w3.org/2000/svg" xmlns:xlink="http://www.w3.org/1999/xlink" version="1.1"><g stroke-width="1" stroke-linejoin="bevel"><path d="M442.1 308L389.2 351L461.1 334Z" fill="#191960" stroke="#191960"></path><path d="M389.2 351L417.1 403.5L461.1 334Z" fill="#1b1860" stroke="#1b1860"></path><path d="M417.1 403.5L478.9 409L461.1 334Z" fill="#1b1860" stroke="#1b1860"></path><path d="M427.2 232.5L420.1 249.5L442.1 308Z" fill="#270a61" stroke="#270a61"></path><path d="M442.1 308L338.4 280.5L389.2 351Z" fill="#201361" stroke="#201361"></path><path d="M478.9 409L489.1 407.5L461.1 334Z" fill="#191960" stroke="#191960"></path><path d="M326.4 318L330.4 354L389.2 351Z" fill="#191960" stroke="#191960"></path><path d="M389.2 351L342.4 428.5L417.1 403.5Z" fill="#260d61" stroke="#260d61"></path><path d="M338.4 280.5L326.4 318L389.2 351Z" fill="#270a61" stroke="#270a61"></path><path d="M420.1 249.5L338.4 280.5L442.1 308Z" fill="#270a61" stroke="#270a61"></path><path d="M582.9 315L442.1 308L461.1 334Z" fill="#2b0461" stroke="#2b0461"></path><path d="M505.9 191.5L427.2 232.5L442.1 308Z" fill="#1b1860" stroke="#1b1860"></path><path d="M420.1 249.5L384.2 235L338.4 280.5Z" fill="#201361" stroke="#201361"></path><path d="M338.4 280.5L324.2 291.5L326.4 318Z" fill="#201361" stroke="#201361"></path><path d="M427.2 232.5L384.2 235L420.1 249.5Z" fill="#1e1561" stroke="#1e1561"></path><path d="M338.4 280.5L263.5 200L324.2 291.5Z" fill="#260d61" stroke="#260d61"></path><path d="M330.4 354L342.4 428.5L389.2 351Z" fill="#2b0461" stroke="#2b0461"></path><path d="M417.1 403.5L407.2 486.5L478.9 409Z" fill="#2b0461" stroke="#2b0461"></path><path d="M489.1 407.5L543.9 397.5L461.1 334Z" fill="#1d1661" stroke="#1d1661"></path><path d="M342.4 428.5L407.2 486.5L417.1 403.5Z" fill="#191960" stroke="#191960"></path><path d="M478.9 409L494.9 485.5L489.1 407.5Z" fill="#1e1561" stroke="#1e1561"></path><path d="M489.1 407.5L494.9 485.5L543.9 397.5Z" fill="#221161" stroke="#221161"></path><path d="M543.9 397.5L582.9 315L461.1 334Z" fill="#240f61" stroke="#240f61"></path><path d="M407.2 486.5L494.9 485.5L478.9 409Z" fill="#1d1661" stroke="#1d1661"></path><path d="M582.9 315L505.9 191.5L442.1 308Z" fill="#191960" stroke="#191960"></path><path d="M427.2 232.5L353.4 177.5L384.2 235Z" fill="#290761" stroke="#290761"></path><path d="M585.9 540L588.8 395L543.9 397.5Z" fill="#2b0461" stroke="#2b0461"></path><path d="M543.9 397.5L588.8 395L582.9 315Z" fill="#240f61" stroke="#240f61"></path><path d="M406.2 132.5L353.4 177.5L427.2 232.5Z" fill="#191960" stroke="#191960"></path><path d="M384.2 235L353.4 177.5L338.4 280.5Z" fill="#191960" stroke="#191960"></path><path d="M640.6 283L600.8 294.5L686.6 313.5Z" fill="#270a61" stroke="#270a61"></path><path d="M582.9 315L600.8 294.5L505.9 191.5Z" fill="#290761" stroke="#290761"></path><path d="M330.4 354L256.5 451L342.4 428.5Z" fill="#201361" stroke="#201361"></path><path d="M342.4 428.5L329.4 540L407.2 486.5Z" fill="#191960" stroke="#191960"></path><path d="M205.5 427.5L256.5 451L330.4 354Z" fill="#191960" stroke="#191960"></path><path d="M205.5 427.5L330.4 354L326.4 318Z" fill="#270a61" stroke="#270a61"></path><path d="M181.7 244L326.4 318L324.2 291.5Z" fill="#290761" stroke="#290761"></path><path d="M505.9 191.5L406.2 132.5L427.2 232.5Z" fill="#221161" stroke="#221161"></path><path d="M344.2 141L263.5 200L353.4 177.5Z" fill="#240f61" stroke="#240f61"></path><path d="M353.4 177.5L263.5 200L338.4 280.5Z" fill="#1e1561" stroke="#1e1561"></path><path d="M406.2 132.5L344.2 141L353.4 177.5Z" fill="#201361" stroke="#201361"></path><path d="M407.2 486.5L507.1 540L494.9 485.5Z" fill="#240f61" stroke="#240f61"></path><path d="M494.9 485.5L585.9 540L543.9 397.5Z" fill="#201361" stroke="#201361"></path><path d="M329.4 540L507.1 540L407.2 486.5Z" fill="#191960" stroke="#191960"></path><path d="M263.5 200L249.5 213L324.2 291.5Z" fill="#260d61" stroke="#260d61"></path><path d="M322.2 540L329.4 540L342.4 428.5Z" fill="#1d1661" stroke="#1d1661"></path><path d="M649.6 399L600.8 294.5L582.9 315Z" fill="#240f61" stroke="#240f61"></path><path d="M600.8 294.5L625.8 220L505.9 191.5Z" fill="#221161" stroke="#221161"></path><path d="M256.5 451L322.2 540L342.4 428.5Z" fill="#240f61" stroke="#240f61"></path><path d="M645.6 474.5L649.6 399L588.8 395Z" fill="#191960" stroke="#191960"></path><path d="M588.8 395L649.6 399L582.9 315Z" fill="#191960" stroke="#191960"></path><path d="M640.6 283L625.8 220L600.8 294.5Z" fill="#221161" stroke="#221161"></path><path d="M447.1 76L428.1 75.5L406.2 132.5Z" fill="#1b1860" stroke="#1b1860"></path><path d="M151.5 335.5L205.5 427.5L326.4 318Z" fill="#270a61" stroke="#270a61"></path><path d="M256.5 451L211.5 540L322.2 540Z" fill="#221161" stroke="#221161"></path><path d="M406.2 132.5L343.4 119L344.2 141Z" fill="#1b1860" stroke="#1b1860"></path><path d="M344.2 141L254.5 114.5L263.5 200Z" fill="#1b1860" stroke="#1b1860"></path><path d="M193.7 213.5L210.5 220.5L191.7 199Z" fill="#201361" stroke="#201361"></path><path d="M625.8 220L582.8 160.5L505.9 191.5Z" fill="#2b0461" stroke="#2b0461"></path><path d="M406.2 132.5L428.1 75.5L343.4 119Z" fill="#1d1661" stroke="#1d1661"></path><path d="M210.5 220.5L249.5 213L191.7 199Z" fill="#270a61" stroke="#270a61"></path><path d="M249.5 213L181.7 244L324.2 291.5Z" fill="#260d61" stroke="#260d61"></path><path d="M507.1 540L585.9 540L494.9 485.5Z" fill="#260d61" stroke="#260d61"></path><path d="M585.9 540L645.6 474.5L588.8 395Z" fill="#201361" stroke="#201361"></path><path d="M613.8 126L579.9 131L582.8 160.5Z" fill="#240f61" stroke="#240f61"></path><path d="M582.8 160.5L579.9 131L505.9 191.5Z" fill="#240f61" stroke="#240f61"></path><path d="M210.5 220.5L181.7 244L249.5 213Z" fill="#1e1561" stroke="#1e1561"></path><path d="M649.6 399L686.6 313.5L600.8 294.5Z" fill="#240f61" stroke="#240f61"></path><path d="M640.6 283L703.5 223.5L625.8 220Z" fill="#290761" stroke="#290761"></path><path d="M625.8 220L613.8 126L582.8 160.5Z" fill="#221161" stroke="#221161"></path><path d="M701.5 295.5L686.6 313.5L743.3 393.5Z" fill="#1b1860" stroke="#1b1860"></path><path d="M191.7 199L249.5 213L263.5 200Z" fill="#2b0461" stroke="#2b0461"></path><path d="M210.5 220.5L193.7 213.5L181.7 244Z" fill="#2b0461" stroke="#2b0461"></path><path d="M447.1 76L406.2 132.5L505.9 191.5Z" fill="#201361" stroke="#201361"></path><path d="M579.9 131L447.1 76L505.9 191.5Z" fill="#1d1661" stroke="#1d1661"></path><path d="M254.5 114.5L191.7 199L263.5 200Z" fill="#1e1561" stroke="#1e1561"></path><path d="M193.7 213.5L191.7 199L181.7 244Z" fill="#240f61" stroke="#240f61"></path><path d="M127.8 361L151.5 335.5L103.7 294.5Z" fill="#260d61" stroke="#260d61"></path><path d="M181.7 244L151.5 335.5L326.4 318Z" fill="#1e1561" stroke="#1e1561"></path><path d="M585.9 540L618.8 535.5L645.6 474.5Z" fill="#270a61" stroke="#270a61"></path><path d="M743.3 393.5L686.6 313.5L649.6 399Z" fill="#2b0461" stroke="#2b0461"></path><path d="M686.6 313.5L701.5 295.5L640.6 283Z" fill="#1e1561" stroke="#1e1561"></path><path d="M618.8 535.5L630.8 540L645.6 474.5Z" fill="#1d1661" stroke="#1d1661"></path><path d="M585.9 540L624.6 540L618.8 535.5Z" fill="#191960" stroke="#191960"></path><path d="M343.4 119L254.5 114.5L344.2 141Z" fill="#1d1661" stroke="#1d1661"></path><path d="M290.4 8.5L254.5 114.5L343.4 119Z" fill="#1b1860" stroke="#1b1860"></path><path d="M717.5 442L692.5 437.5L645.6 474.5Z" fill="#240f61" stroke="#240f61"></path><path d="M645.6 474.5L692.5 437.5L649.6 399Z" fill="#1e1561" stroke="#1e1561"></path><path d="M703.5 223.5L613.8 126L625.8 220Z" fill="#240f61" stroke="#240f61"></path><path d="M579.9 131L581.9 99.5L447.1 76Z" fill="#240f61" stroke="#240f61"></path><path d="M624.6 540L630.8 540L618.8 535.5Z" fill="#260d61" stroke="#260d61"></path><path d="M613.8 126L581.9 99.5L579.9 131Z" fill="#290761" stroke="#290761"></path><path d="M172.7 540L211.5 540L205.5 427.5Z" fill="#191960" stroke="#191960"></path><path d="M205.5 427.5L211.5 540L256.5 451Z" fill="#260d61" stroke="#260d61"></path><path d="M103.7 294.5L151.5 335.5L181.7 244Z" fill="#1d1661" stroke="#1d1661"></path><path d="M151.5 335.5L127.8 361L205.5 427.5Z" fill="#1d1661" stroke="#1d1661"></path><path d="M701.5 295.5L703.5 223.5L640.6 283Z" fill="#1b1860" stroke="#1b1860"></path><path d="M755.3 267.5L722.6 266.5L757.5 278Z" fill="#1b1860" stroke="#1b1860"></path><path d="M701.5 295.5L722.6 266.5L703.5 223.5Z" fill="#2b0461" stroke="#2b0461"></path><path d="M669.5 540L717.5 442L645.6 474.5Z" fill="#191960" stroke="#191960"></path><path d="M692.5 437.5L743.3 393.5L649.6 399Z" fill="#201361" stroke="#201361"></path><path d="M49.8 339.5L113.7 392L127.8 361Z" fill="#270a61" stroke="#270a61"></path><path d="M127.8 361L113.7 392L205.5 427.5Z" fill="#240f61" stroke="#240f61"></path><path d="M630.8 540L669.5 540L645.6 474.5Z" fill="#191960" stroke="#191960"></path><path d="M94.7 474.5L172.7 540L205.5 427.5Z" fill="#270a61" stroke="#270a61"></path><path d="M793.3 506.5L743.3 393.5L717.5 442Z" fill="#201361" stroke="#201361"></path><path d="M717.5 442L743.3 393.5L692.5 437.5Z" fill="#290761" stroke="#290761"></path><path d="M80.8 269.5L181.7 244L191.7 199Z" fill="#201361" stroke="#201361"></path><path d="M80.8 269.5L103.7 294.5L181.7 244Z" fill="#2b0461" stroke="#2b0461"></path><path d="M757.5 278L722.6 266.5L701.5 295.5Z" fill="#270a61" stroke="#270a61"></path><path d="M722.6 266.5L755.3 267.5L703.5 223.5Z" fill="#290761" stroke="#290761"></path><path d="M546.8 7.5L581.9 99.5L608.8 0Z" fill="#1b1860" stroke="#1b1860"></path><path d="M743.3 393.5L757.5 278L701.5 295.5Z" fill="#201361" stroke="#201361"></path><path d="M40.8 211L80.8 269.5L191.7 199Z" fill="#290761" stroke="#290761"></path><path d="M103.7 294.5L49.8 339.5L127.8 361Z" fill="#191960" stroke="#191960"></path><path d="M514.1 0L336.2 0L428.1 75.5Z" fill="#1e1561" stroke="#1e1561"></path><path d="M428.1 75.5L336.2 0L343.4 119Z" fill="#270a61" stroke="#270a61"></path><path d="M101.8 76L40.8 211L191.7 199Z" fill="#201361" stroke="#201361"></path><path d="M514.1 0L428.1 75.5L447.1 76Z" fill="#290761" stroke="#290761"></path><path d="M546.8 7.5L447.1 76L581.9 99.5Z" fill="#1d1661" stroke="#1d1661"></path><path d="M546.8 7.5L514.1 0L447.1 76Z" fill="#260d61" stroke="#260d61"></path><path d="M546.8 7.5L608.8 0L556.9 0Z" fill="#1d1661" stroke="#1d1661"></path><path d="M581.9 99.5L664.6 14.5L608.8 0Z" fill="#201361" stroke="#201361"></path><path d="M0 472L94.7 474.5L113.7 392Z" fill="#240f61" stroke="#240f61"></path><path d="M113.7 392L94.7 474.5L205.5 427.5Z" fill="#1e1561" stroke="#1e1561"></path><path d="M336.2 0L290.4 8.5L343.4 119Z" fill="#1e1561" stroke="#1e1561"></path><path d="M734.6 110L613.8 126L703.5 223.5Z" fill="#270a61" stroke="#270a61"></path><path d="M546.8 7.5L556.9 0L514.1 0Z" fill="#1e1561" stroke="#1e1561"></path><path d="M94.7 474.5L117.8 540L172.7 540Z" fill="#240f61" stroke="#240f61"></path><path d="M336.2 0L278.5 0L290.4 8.5Z" fill="#270a61" stroke="#270a61"></path><path d="M290.4 8.5L254.4 0L254.5 114.5Z" fill="#240f61" stroke="#240f61"></path><path d="M80.8 269.5L49.8 339.5L103.7 294.5Z" fill="#290761" stroke="#290761"></path><path d="M278.5 0L254.4 0L290.4 8.5Z" fill="#221161" stroke="#221161"></path><path d="M757.5 278L801.3 282L755.3 267.5Z" fill="#201361" stroke="#201361"></path><path d="M825.2 243L734.6 110L703.5 223.5Z" fill="#191960" stroke="#191960"></path><path d="M743.3 393.5L801.3 282L757.5 278Z" fill="#221161" stroke="#221161"></path><path d="M858.3 353L801.3 282L743.3 393.5Z" fill="#191960" stroke="#191960"></path><path d="M825.2 243L703.5 223.5L755.3 267.5Z" fill="#1d1661" stroke="#1d1661"></path><path d="M664.6 14.5L581.9 99.5L613.8 126Z" fill="#270a61" stroke="#270a61"></path><path d="M752.3 83.5L739.5 100L734.6 110Z" fill="#240f61" stroke="#240f61"></path><path d="M719.5 56.5L664.6 14.5L613.8 126Z" fill="#260d61" stroke="#260d61"></path><path d="M669.5 540L793.3 506.5L717.5 442Z" fill="#191960" stroke="#191960"></path><path d="M719.5 56.5L613.8 126L734.6 110Z" fill="#270a61" stroke="#270a61"></path><path d="M101.8 76L191.7 199L254.5 114.5Z" fill="#2b0461" stroke="#2b0461"></path><path d="M0 284L0 309.5L49.8 339.5Z" fill="#260d61" stroke="#260d61"></path><path d="M664.6 14.5L648.6 0L608.8 0Z" fill="#191960" stroke="#191960"></path><path d="M739.5 100L719.5 56.5L734.6 110Z" fill="#221161" stroke="#221161"></path><path d="M664.6 14.5L739.5 0L648.6 0Z" fill="#1e1561" stroke="#1e1561"></path><path d="M889.2 293.5L825.2 243L801.3 282Z" fill="#201361" stroke="#201361"></path><path d="M801.3 282L825.2 243L755.3 267.5Z" fill="#1d1661" stroke="#1d1661"></path><path d="M739.5 100L752.3 83.5L719.5 56.5Z" fill="#290761" stroke="#290761"></path><path d="M883.3 127L752.3 83.5L734.6 110Z" fill="#260d61" stroke="#260d61"></path><path d="M121.8 0L101.8 76L254.5 114.5Z" fill="#2b0461" stroke="#2b0461"></path><path d="M0 284L49.8 339.5L80.8 269.5Z" fill="#270a61" stroke="#270a61"></path><path d="M0 472L37.8 529.5L94.7 474.5Z" fill="#2b0461" stroke="#2b0461"></path><path d="M94.7 474.5L37.8 529.5L117.8 540Z" fill="#2b0461" stroke="#2b0461"></path><path d="M0 228.5L0 284L40.8 211Z" fill="#221161" stroke="#221161"></path><path d="M40.8 211L0 284L80.8 269.5Z" fill="#191960" stroke="#191960"></path><path d="M0 472L113.7 392L49.8 339.5Z" fill="#1d1661" stroke="#1d1661"></path><path d="M873.2 367L858.3 353L743.3 393.5Z" fill="#2b0461" stroke="#2b0461"></path><path d="M91.7 34.5L82.8 68.5L101.8 76Z" fill="#201361" stroke="#201361"></path><path d="M101.8 76L0 160L40.8 211Z" fill="#1b1860" stroke="#1b1860"></path><path d="M0 160L0 228.5L40.8 211Z" fill="#221161" stroke="#221161"></path><path d="M0 309.5L0 472L49.8 339.5Z" fill="#191960" stroke="#191960"></path><path d="M793.3 506.5L873.2 367L743.3 393.5Z" fill="#260d61" stroke="#260d61"></path><path d="M858.3 353L889.2 293.5L801.3 282Z" fill="#1d1661" stroke="#1d1661"></path><path d="M669.5 540L828.3 540L793.3 506.5Z" fill="#1b1860" stroke="#1b1860"></path><path d="M793.3 506.5L947.2 445.5L873.2 367Z" fill="#191960" stroke="#191960"></path><path d="M121.8 0L91.7 34.5L101.8 76Z" fill="#2b0461" stroke="#2b0461"></path><path d="M82.8 68.5L0 160L101.8 76Z" fill="#260d61" stroke="#260d61"></path><path d="M254.4 0L121.8 0L254.5 114.5Z" fill="#290761" stroke="#290761"></path><path d="M0 30.5L0 160L82.8 68.5Z" fill="#270a61" stroke="#270a61"></path><path d="M820.2 0L739.5 0L752.3 83.5Z" fill="#221161" stroke="#221161"></path><path d="M752.3 83.5L739.5 0L719.5 56.5Z" fill="#260d61" stroke="#260d61"></path><path d="M719.5 56.5L739.5 0L664.6 14.5Z" fill="#2b0461" stroke="#2b0461"></path><path d="M883.3 127L734.6 110L825.2 243Z" fill="#270a61" stroke="#270a61"></path><path d="M0 472L0 528.5L37.8 529.5Z" fill="#221161" stroke="#221161"></path><path d="M37.8 529.5L0 540L117.8 540Z" fill="#270a61" stroke="#270a61"></path><path d="M873.2 367L889.2 293.5L858.3 353Z" fill="#1e1561" stroke="#1e1561"></path><path d="M0 528.5L0 540L37.8 529.5Z" fill="#1d1661" stroke="#1d1661"></path><path d="M121.8 0L77.7 0L91.7 34.5Z" fill="#2b0461" stroke="#2b0461"></path><path d="M91.7 34.5L0 30.5L82.8 68.5Z" fill="#201361" stroke="#201361"></path><path d="M889.2 293.5L897.2 166.5L825.2 243Z" fill="#221161" stroke="#221161"></path><path d="M897.2 166.5L883.3 127L825.2 243Z" fill="#1b1860" stroke="#1b1860"></path><path d="M897.2 166.5L896.2 134L883.3 127Z" fill="#1b1860" stroke="#1b1860"></path><path d="M848.2 32.5L820.2 0L752.3 83.5Z" fill="#221161" stroke="#221161"></path><path d="M848.2 32.5L752.3 83.5L883.3 127Z" fill="#1d1661" stroke="#1d1661"></path><path d="M960 2.5L848.2 32.5L883.3 127Z" fill="#290761" stroke="#290761"></path><path d="M77.7 0L0 30.5L91.7 34.5Z" fill="#260d61" stroke="#260d61"></path><path d="M828.3 540L947.2 445.5L793.3 506.5Z" fill="#221161" stroke="#221161"></path><path d="M873.2 367L960 338.5L889.2 293.5Z" fill="#221161" stroke="#221161"></path><path d="M889.2 293.5L960 268L897.2 166.5Z" fill="#1e1561" stroke="#1e1561"></path><path d="M897.2 166.5L960 145L896.2 134Z" fill="#290761" stroke="#290761"></path><path d="M917.2 540L947.2 445.5L828.3 540Z" fill="#191960" stroke="#191960"></path><path d="M960 350L960 338.5L873.2 367Z" fill="#201361" stroke="#201361"></path><path d="M960 411.5L960 350L873.2 367Z" fill="#1d1661" stroke="#1d1661"></path><path d="M960 540L960 411.5L947.2 445.5Z" fill="#1d1661" stroke="#1d1661"></path><path d="M947.2 445.5L960 411.5L873.2 367Z" fill="#221161" stroke="#221161"></path><path d="M960 338.5L960 268L889.2 293.5Z" fill="#1b1860" stroke="#1b1860"></path><path d="M960 2.5L855.3 0L848.2 32.5Z" fill="#270a61" stroke="#270a61"></path><path d="M77.7 0L0 0L0 30.5Z" fill="#270a61" stroke="#270a61"></path><path d="M960 2.5L883.3 127L896.2 134Z" fill="#221161" stroke="#221161"></path><path d="M848.2 32.5L855.3 0L820.2 0Z" fill="#270a61" stroke="#270a61"></path><path d="M960 268L960 182.5L897.2 166.5Z" fill="#1b1860" stroke="#1b1860"></path><path d="M960 182.5L960 145L897.2 166.5Z" fill="#201361" stroke="#201361"></path><path d="M917.2 540L960 540L947.2 445.5Z" fill="#1b1860" stroke="#1b1860"></path><path d="M960 145L960 2.5L896.2 134Z" fill="#290761" stroke="#290761"></path><path d="M960 2.5L960 0L855.3 0Z" fill="#240f61" stroke="#240f61"></path></g></svg>